<?xml version="1.0" standalone="no"?>
<!DOCTYPE svg PUBLIC "-//W3C//DTD SVG 20010904//EN"
 "http://www.w3.org/TR/2001/REC-SVG-20010904/DTD/svg10.dtd">
<svg version="1.0" xmlns="http://www.w3.org/2000/svg"
 width="180.000000pt" height="180.000000pt" viewBox="0 0 180.000000 180.000000"
 preserveAspectRatio="xMidYMid meet">

<g transform="translate(0.000000,180.000000) scale(0.100000,-0.100000)"
fill="#000000" stroke="none">
<path d="M585 1494 c-112 -7 -166 -24 -211 -69 -25 -26 -45 -57 -53 -86 -7
-27 -14 -148 -18 -311 l-6 -266 59 -30 c33 -16 100 -43 149 -60 297 -99 630
-80 923 54 l75 34 -6 268 c-6 301 -14 345 -70 400 -60 59 -95 64 -457 67 -179
1 -352 1 -385 -1z m-115 -238 l0 -105 43 -3 c35 -2 43 -7 45 -25 3 -22 1 -23
-77 -23 l-81 0 0 130 0 130 35 0 35 0 0 -104z m310 89 c38 -19 63 -68 63 -120
0 -75 -58 -128 -140 -128 -129 0 -180 164 -76 242 34 25 110 28 153 6z m298
-107 c23 -68 42 -126 42 -130 0 -5 -13 -8 -30 -8 -19 0 -33 7 -40 20 -8 16
-21 20 -60 20 -40 0 -50 -4 -55 -20 -5 -15 -15 -20 -40 -20 l-34 0 44 126 c25
69 45 127 45 130 0 2 19 4 43 4 l43 0 42 -122z m194 49 l48 -72 0 73 0 72 38
0 37 0 -3 -130 -3 -130 -33 0 c-30 0 -38 7 -85 78 l-51 77 0 -77 0 -78 -35 0
-35 0 0 130 0 130 38 0 c35 0 40 -4 84 -73z m-683 -343 c64 -54 27 -154 -56
-154 -125 1 -122 176 4 179 12 1 35 -11 52 -25z m721 11 c17 -9 33 -28 39 -48
21 -64 -20 -117 -90 -117 -52 0 -93 48 -85 99 6 42 46 81 82 81 14 0 38 -7 54
-15z m-342 -90 c24 -29 28 -65 10 -98 -18 -34 -39 -46 -81 -47 -84 0 -120 100
-55 155 26 22 39 26 67 21 21 -3 45 -16 59 -31z"/>
<path d="M660 1280 c-28 -28 -26 -75 5 -105 29 -30 55 -32 86 -6 29 23 31 81
4 111 -23 26 -69 26 -95 0z m80 -29 c0 -10 -7 -24 -15 -31 -12 -10 -13 -16 -4
-27 18 -21 1 -28 -21 -8 -12 11 -20 31 -20 52 0 30 3 33 30 33 23 0 30 -5 30
-19z"/>
<path d="M982 1246 c-17 -47 -15 -56 13 -56 29 0 29 2 12 52 l-13 37 -12 -33z"/>
<path d="M893 470 c0 -30 2 -43 4 -27 2 15 2 39 0 55 -2 15 -4 2 -4 -28z"/>
<path d="M1093 470 c0 -30 2 -43 4 -27 2 15 2 39 0 55 -2 15 -4 2 -4 -28z"/>
<path d="M410 465 c0 -43 1 -45 30 -45 17 0 30 5 30 10 0 6 -7 10 -15 10 -21
0 -19 18 3 23 16 4 16 5 0 6 -22 1 -24 21 -3 21 8 0 15 5 15 10 0 6 -13 10
-30 10 -29 0 -30 -2 -30 -45z"/>
<path d="M490 465 c0 -45 19 -66 21 -22 l0 22 11 -22 c13 -28 24 -29 37 -5 10
16 10 16 11 0 0 -10 7 -18 15 -18 11 0 15 12 15 45 0 55 -24 62 -45 13 l-14
-33 -11 33 c-18 49 -40 42 -40 -13z"/>
<path d="M610 465 c0 -33 4 -45 15 -45 11 0 15 12 15 45 0 33 -4 45 -15 45
-11 0 -15 -12 -15 -45z"/>
<path d="M702 498 c-15 -15 -15 -51 0 -66 13 -13 54 -16 61 -4 3 4 -9 7 -26 7
-29 0 -32 3 -32 30 0 27 3 30 32 29 18 -1 30 2 27 7 -8 13 -48 11 -62 -3z"/>
<path d="M1218 499 c-2 -6 -2 -26 0 -45 3 -24 9 -34 21 -33 10 0 11 2 4 6 -15
5 -18 50 -4 55 5 2 3 8 -4 15 -9 9 -15 9 -17 2z"/>
<path d="M795 471 c-10 -33 5 -51 41 -51 32 0 34 2 34 35 0 33 -2 35 -34 35
-25 0 -36 -5 -41 -19z m55 -16 c0 -18 -5 -25 -19 -25 -24 0 -33 13 -25 34 10
27 44 20 44 -9z"/>
<path d="M924 476 c-11 -29 1 -51 29 -54 15 -2 27 1 27 6 0 5 -12 7 -26 4 -22
-4 -25 -2 -22 19 2 18 9 24 26 23 12 0 22 3 22 8 0 14 -50 9 -56 -6z"/>
<path d="M1002 458 c3 -29 7 -33 36 -36 31 -3 32 -2 31 35 -1 36 -2 37 -8 8
-9 -42 -41 -47 -41 -6 0 17 -5 31 -11 31 -6 0 -9 -14 -7 -32z"/>
<path d="M1124 476 c-12 -31 1 -51 34 -54 31 -3 32 -2 32 32 0 33 -2 36 -30
36 -17 0 -33 -6 -36 -14z m56 -16 c0 -24 -26 -38 -42 -22 -16 16 -2 42 22 42
13 0 20 -7 20 -20z"/>
<path d="M1265 471 c-9 -28 5 -51 30 -51 32 0 49 23 35 49 -14 27 -56 28 -65
2z m55 -16 c0 -18 -5 -25 -19 -25 -11 0 -23 5 -26 10 -11 18 3 40 25 40 15 0
20 -7 20 -25z"/>
<path d="M1351 453 c1 -38 1 -38 9 -9 5 16 15 33 22 37 9 6 6 9 -9 9 -20 0
-23 -5 -22 -37z"/>
</g>
</svg>
